<svg width="113" height="42" viewBox="0 0 113 42" fill="none" xmlns="http://www.w3.org/2000/svg">
<rect width="113" height="29" rx="6" fill="#248232"/>
<path d="M24 42L31.7942 24.75H16.2058L24 42Z" fill="#248232"/>
<path d="M12.5391 14.0195H10.9805L9.48047 16.1172L10.9805 18.2207H12.5391L11.0391 16.1172L12.5391 14.0195ZM15.1172 14.0195H13.5586L12.0586 16.1172L13.5586 18.2207H15.1172L13.6172 16.1172L15.1172 14.0195ZM18.4805 10.5977H16.6758V19H18.4805V16.5977L19.5586 15.4023L22.0195 19H24.1172L20.7598 14.0781L23.877 10.5977H21.7793L18.4805 14.2598V10.5977ZM28.7988 10.4219C27.5156 10.4219 26.4316 10.8496 25.5527 11.7051C24.6738 12.5605 24.2344 13.5918 24.2344 14.7988C24.2344 16.0059 24.6738 17.043 25.5527 17.8984C26.4316 18.7539 27.5156 19.1816 28.7988 19.1816C29.2324 19.1816 29.6543 19.123 30.0645 19C30.4746 18.8828 30.8027 18.748 31.0547 18.6016C31.3066 18.4551 31.541 18.2852 31.7637 18.0918C31.9863 17.8984 32.127 17.7637 32.1914 17.6875C32.2559 17.6113 32.3027 17.5469 32.3379 17.5L31.2539 16.3574L31.1602 16.4805C31.0957 16.5684 30.9961 16.668 30.8555 16.7852C30.7148 16.9023 30.5508 17.0195 30.3691 17.1367C30.1816 17.2539 29.9531 17.3535 29.6719 17.4355C29.3906 17.5176 29.1035 17.5586 28.7988 17.5586C28.0137 17.5586 27.3574 17.2949 26.8301 16.7676C26.3027 16.2402 26.0391 15.584 26.0391 14.7988C26.0391 14.0137 26.3027 13.3574 26.8301 12.8301C27.3574 12.3027 28.0137 12.0391 28.7988 12.0391C29.0801 12.0391 29.3613 12.0859 29.6367 12.1738C29.9062 12.2617 30.1289 12.3555 30.2988 12.4609C30.4629 12.5664 30.6211 12.6836 30.7617 12.8184C30.9023 12.959 30.9961 13.0527 31.0371 13.1113C31.0781 13.1699 31.1133 13.2109 31.1367 13.2402L32.2793 12.0977L32.1445 11.9219C32.0566 11.8105 31.916 11.6699 31.7168 11.5059C31.5176 11.3418 31.2949 11.1777 31.0371 11.0137C30.7793 10.8496 30.457 10.7148 30.0586 10.5977C29.6602 10.4805 29.2383 10.4219 28.7988 10.4219ZM38.2734 14.2598L35.3965 10.5977H33.7734V19H35.5781V13.4219L38.2734 16.8379L40.9746 13.3984V19H42.7734V10.5977H41.1797L38.2734 14.2598ZM46.7344 10.5977H44.9297V19H46.7344V16.5977L47.8125 15.4023L50.2734 19H52.3711L49.0137 14.0781L52.1309 10.5977H50.0332L46.7344 14.2598V10.5977ZM56.8652 14.7402H52.5469V16.1816H56.8652V14.7402ZM58.3594 10.5977V19H60.1641V16.2402H61.8984C62.7656 16.2402 63.4805 15.9707 64.0488 15.4316C64.6113 14.8926 64.8984 14.2188 64.8984 13.4219C64.8984 12.625 64.6113 11.9512 64.043 11.4121C63.4746 10.873 62.7598 10.6035 61.8984 10.6035L58.3594 10.5977ZM61.8398 12.2266C62.1973 12.2266 62.4961 12.3379 62.7363 12.5723C62.9766 12.8066 63.0996 13.0879 63.0996 13.4277C63.0996 13.7617 62.9766 14.043 62.7363 14.2773C62.4961 14.5059 62.1973 14.623 61.8398 14.623H60.1641V12.2266H61.8398ZM71.4902 16.5977L71.5488 15.9414C71.5488 15.1035 71.2676 14.4062 70.7109 13.8438C70.1484 13.2812 69.4512 13 68.6133 13C67.7695 13 67.0488 13.3047 66.4512 13.9023C65.8477 14.5 65.5488 15.2207 65.5488 16.0586C65.5488 16.9023 65.8535 17.623 66.4629 18.2207C67.0723 18.8184 67.8047 19.1172 68.6719 19.1172C68.9766 19.1172 69.2695 19.082 69.5566 19.0117C69.8438 18.9414 70.0781 18.8652 70.2598 18.7715C70.4355 18.6777 70.6055 18.5723 70.7695 18.4551C70.9277 18.3379 71.0332 18.2559 71.0801 18.209L71.1914 18.0977L70.3535 17.0195L70.1836 17.2012C70.0781 17.3242 69.8906 17.4473 69.6328 17.5645C69.375 17.6816 69.0938 17.7402 68.7891 17.7402C68.3672 17.7402 68.0156 17.6348 67.7402 17.4121C67.459 17.1895 67.2891 16.9199 67.2305 16.5977H71.4902ZM68.6133 14.3828C68.9531 14.3828 69.2461 14.4883 69.4805 14.6875C69.7148 14.8926 69.8672 15.1504 69.9316 15.4609H67.2305C67.3242 15.1445 67.4941 14.8809 67.7344 14.6816C67.9746 14.4824 68.2676 14.3828 68.6133 14.3828ZM77.0156 13.1172H72.7559V19H74.373V14.6172H77.0156V13.1172ZM82.0781 13.1172L79.5293 16.4219V13.1172H77.9121V19H79.3125L81.873 15.7012V19H83.4902V13.1172H82.0781ZM86.3672 16.0645C86.3672 15.625 86.5078 15.2559 86.7949 14.9512C87.0762 14.6523 87.416 14.5 87.8086 14.5C88.1953 14.5 88.5352 14.6523 88.8223 14.9512C89.1035 15.2559 89.25 15.625 89.25 16.0645C89.25 16.5039 89.1035 16.873 88.8223 17.1719C88.5352 17.4707 88.1953 17.6172 87.8086 17.6172C87.416 17.6172 87.0762 17.4707 86.7949 17.1719C86.5078 16.873 86.3672 16.5039 86.3672 16.0645ZM90.9258 16.0586C90.9258 15.2441 90.6152 14.5293 89.9941 13.9199C89.373 13.3105 88.6465 13.0059 87.8086 13.0059C86.9648 13.0059 86.2383 13.3105 85.6172 13.9199C84.9961 14.5293 84.6855 15.2441 84.6855 16.0586C84.6855 16.8789 84.9961 17.5938 85.6172 18.2031C86.2383 18.8125 86.9648 19.1172 87.8086 19.1172C88.6465 19.1172 89.373 18.8125 89.9941 18.2031C90.6152 17.5938 90.9258 16.8789 90.9258 16.0586ZM93.7441 16.7793H96.0234V19H97.6465V13.1172H96.0234V15.3379H93.7441V13.1172H92.127V19H93.7441V16.7793ZM103.043 16.1172L101.543 18.2207H103.102L104.602 16.1172L103.102 14.0195H101.543L103.043 16.1172ZM100.465 16.1172L98.9648 18.2207H100.523L102.023 16.1172L100.523 14.0195H98.9648L100.465 16.1172Z" fill="white"/>
</svg>
