<svg width="110" height="42" viewBox="0 0 110 42" fill="none" xmlns="http://www.w3.org/2000/svg">
<rect width="110" height="29" rx="6" fill="#248232"/>
<path d="M24 42L31.7942 24.75H16.2058L24 42Z" fill="#248232"/>
<path d="M12.5391 14.0195H10.9805L9.48047 16.1172L10.9805 18.2207H12.5391L11.0391 16.1172L12.5391 14.0195ZM15.1172 14.0195H13.5586L12.0586 16.1172L13.5586 18.2207H15.1172L13.6172 16.1172L15.1172 14.0195ZM18.4805 10.5977H16.6758V19H18.4805V16.5977L19.5586 15.4023L22.0195 19H24.1172L20.7598 14.0781L23.877 10.5977H21.7793L18.4805 14.2598V10.5977ZM28.7988 10.4219C27.5156 10.4219 26.4316 10.8496 25.5527 11.7051C24.6738 12.5605 24.2344 13.5918 24.2344 14.7988C24.2344 16.0059 24.6738 17.043 25.5527 17.8984C26.4316 18.7539 27.5156 19.1816 28.7988 19.1816C29.2324 19.1816 29.6543 19.123 30.0645 19C30.4746 18.8828 30.8027 18.748 31.0547 18.6016C31.3066 18.4551 31.541 18.2852 31.7637 18.0918C31.9863 17.8984 32.127 17.7637 32.1914 17.6875C32.2559 17.6113 32.3027 17.5469 32.3379 17.5L31.2539 16.3574L31.1602 16.4805C31.0957 16.5684 30.9961 16.668 30.8555 16.7852C30.7148 16.9023 30.5508 17.0195 30.3691 17.1367C30.1816 17.2539 29.9531 17.3535 29.6719 17.4355C29.3906 17.5176 29.1035 17.5586 28.7988 17.5586C28.0137 17.5586 27.3574 17.2949 26.8301 16.7676C26.3027 16.2402 26.0391 15.584 26.0391 14.7988C26.0391 14.0137 26.3027 13.3574 26.8301 12.8301C27.3574 12.3027 28.0137 12.0391 28.7988 12.0391C29.0801 12.0391 29.3613 12.0859 29.6367 12.1738C29.9062 12.2617 30.1289 12.3555 30.2988 12.4609C30.4629 12.5664 30.6211 12.6836 30.7617 12.8184C30.9023 12.959 30.9961 13.0527 31.0371 13.1113C31.0781 13.1699 31.1133 13.2109 31.1367 13.2402L32.2793 12.0977L32.1445 11.9219C32.0566 11.8105 31.916 11.6699 31.7168 11.5059C31.5176 11.3418 31.2949 11.1777 31.0371 11.0137C30.7793 10.8496 30.457 10.7148 30.0586 10.5977C29.6602 10.4805 29.2383 10.4219 28.7988 10.4219ZM38.2734 14.2598L35.3965 10.5977H33.7734V19H35.5781V13.4219L38.2734 16.8379L40.9746 13.3984V19H42.7734V10.5977H41.1797L38.2734 14.2598ZM46.7344 10.5977H44.9297V19H46.7344V16.5977L47.8125 15.4023L50.2734 19H52.3711L49.0137 14.0781L52.1309 10.5977H50.0332L46.7344 14.2598V10.5977ZM56.8652 14.7402H52.5469V16.1816H56.8652V14.7402ZM62.4434 10.4219C61.1602 10.4219 60.0762 10.8496 59.1973 11.7051C58.3184 12.5605 57.8789 13.5918 57.8789 14.7988C57.8789 16.0059 58.3184 17.043 59.1973 17.8984C60.0762 18.7539 61.1602 19.1816 62.4434 19.1816C62.877 19.1816 63.2988 19.123 63.709 19C64.1191 18.8828 64.4473 18.748 64.6992 18.6016C64.9512 18.4551 65.1855 18.2852 65.4082 18.0918C65.6309 17.8984 65.7715 17.7637 65.8359 17.6875C65.9004 17.6113 65.9473 17.5469 65.9824 17.5L64.8984 16.3574L64.8047 16.4805C64.7402 16.5684 64.6406 16.668 64.5 16.7852C64.3594 16.9023 64.1953 17.0195 64.0137 17.1367C63.8262 17.2539 63.5977 17.3535 63.3164 17.4355C63.0352 17.5176 62.748 17.5586 62.4434 17.5586C61.6582 17.5586 61.002 17.2949 60.4746 16.7676C59.9473 16.2402 59.6836 15.584 59.6836 14.7988C59.6836 14.0137 59.9473 13.3574 60.4746 12.8301C61.002 12.3027 61.6582 12.0391 62.4434 12.0391C62.7246 12.0391 63.0059 12.0859 63.2812 12.1738C63.5508 12.2617 63.7734 12.3555 63.9434 12.4609C64.1074 12.5664 64.2656 12.6836 64.4062 12.8184C64.5469 12.959 64.6406 13.0527 64.6816 13.1113C64.7227 13.1699 64.7578 13.2109 64.7812 13.2402L65.9238 12.0977L65.7891 11.9219C65.7012 11.8105 65.5605 11.6699 65.3613 11.5059C65.1621 11.3418 64.9395 11.1777 64.6816 11.0137C64.4238 10.8496 64.1016 10.7148 63.7031 10.5977C63.3047 10.4805 62.8828 10.4219 62.4434 10.4219ZM72.6387 16.5977L72.6973 15.9414C72.6973 15.1035 72.416 14.4062 71.8594 13.8438C71.2969 13.2812 70.5996 13 69.7617 13C68.918 13 68.1973 13.3047 67.5996 13.9023C66.9961 14.5 66.6973 15.2207 66.6973 16.0586C66.6973 16.9023 67.002 17.623 67.6113 18.2207C68.2207 18.8184 68.9531 19.1172 69.8203 19.1172C70.125 19.1172 70.418 19.082 70.7051 19.0117C70.9922 18.9414 71.2266 18.8652 71.4082 18.7715C71.584 18.6777 71.7539 18.5723 71.918 18.4551C72.0762 18.3379 72.1816 18.2559 72.2285 18.209L72.3398 18.0977L71.502 17.0195L71.332 17.2012C71.2266 17.3242 71.0391 17.4473 70.7812 17.5645C70.5234 17.6816 70.2422 17.7402 69.9375 17.7402C69.5156 17.7402 69.1641 17.6348 68.8887 17.4121C68.6074 17.1895 68.4375 16.9199 68.3789 16.5977H72.6387ZM69.7617 14.3828C70.1016 14.3828 70.3945 14.4883 70.6289 14.6875C70.8633 14.8926 71.0156 15.1504 71.0801 15.4609H68.3789C68.4727 15.1445 68.6426 14.8809 68.8828 14.6816C69.123 14.4824 69.416 14.3828 69.7617 14.3828ZM73.9043 13.1172V19H76.9629C77.6016 19 78.1113 18.8359 78.4922 18.502C78.873 18.1738 79.0664 17.7578 79.0664 17.2598C79.0664 17.0723 79.0312 16.8965 78.9609 16.7324C78.8906 16.5742 78.8145 16.4512 78.7324 16.3574C78.6504 16.2637 78.5508 16.1816 78.4395 16.1113C78.3223 16.041 78.2461 15.9941 78.2051 15.9766C78.1582 15.9648 78.1289 15.9531 78.1055 15.9414L78.2812 15.8301C78.3984 15.7715 78.5215 15.6367 78.6445 15.4375C78.7617 15.2383 78.8262 15.0098 78.8262 14.7402C78.8262 14.3008 78.6387 13.9199 78.2754 13.5977C77.9062 13.2812 77.4316 13.1172 76.8457 13.1172H73.9043ZM76.8457 16.4805C77.0273 16.4805 77.1738 16.5391 77.2793 16.6504C77.3848 16.7617 77.4434 16.9023 77.4434 17.0781C77.4434 17.2539 77.3848 17.4004 77.2793 17.5117C77.1738 17.6289 77.0273 17.6816 76.8457 17.6816H75.5215V16.4805H76.8457ZM77.2031 14.9219C77.2031 15.2441 77.0391 15.4023 76.7227 15.4023H75.5215V14.4414H76.7227C77.0391 14.4414 77.2031 14.6055 77.2031 14.9219ZM85.8457 16.5977L85.9043 15.9414C85.9043 15.1035 85.623 14.4062 85.0664 13.8438C84.5039 13.2812 83.8066 13 82.9688 13C82.125 13 81.4043 13.3047 80.8066 13.9023C80.2031 14.5 79.9043 15.2207 79.9043 16.0586C79.9043 16.9023 80.209 17.623 80.8184 18.2207C81.4277 18.8184 82.1602 19.1172 83.0273 19.1172C83.332 19.1172 83.625 19.082 83.9121 19.0117C84.1992 18.9414 84.4336 18.8652 84.6152 18.7715C84.791 18.6777 84.9609 18.5723 85.125 18.4551C85.2832 18.3379 85.3887 18.2559 85.4355 18.209L85.5469 18.0977L84.709 17.0195L84.5391 17.2012C84.4336 17.3242 84.2461 17.4473 83.9883 17.5645C83.7305 17.6816 83.4492 17.7402 83.1445 17.7402C82.7227 17.7402 82.3711 17.6348 82.0957 17.4121C81.8145 17.1895 81.6445 16.9199 81.5859 16.5977H85.8457ZM82.9688 14.3828C83.3086 14.3828 83.6016 14.4883 83.8359 14.6875C84.0703 14.8926 84.2227 15.1504 84.2871 15.4609H81.5859C81.6797 15.1445 81.8496 14.8809 82.0898 14.6816C82.3301 14.4824 82.623 14.3828 82.9688 14.3828ZM90.4688 19.1172C91.2305 19.1172 91.8867 18.8242 92.4492 18.2324C93.0117 17.6406 93.293 16.9141 93.293 16.0586C93.293 15.2031 93.0117 14.4824 92.4492 13.8906C91.8867 13.2988 91.2305 13 90.4688 13C90.252 13 90.0469 13.0352 89.8477 13.0938C89.6484 13.1523 89.4844 13.2227 89.3613 13.2988C89.2324 13.375 89.1152 13.4629 89.0098 13.5566C88.9043 13.6504 88.834 13.7148 88.7988 13.75C88.7637 13.7852 88.7402 13.8145 88.7285 13.8379V13.1172H87.1113V21.5195H88.7285V18.2793L88.9102 18.4961C89.0273 18.6367 89.2324 18.7715 89.5254 18.9121C89.8184 19.0527 90.1289 19.1172 90.4688 19.1172ZM90.1699 14.4414C90.5684 14.4414 90.9082 14.5938 91.1895 14.8984C91.4707 15.2031 91.6113 15.5898 91.6113 16.0645C91.6113 16.5332 91.4707 16.9258 91.1895 17.2305C90.9082 17.5352 90.5684 17.6875 90.1699 17.6875C89.7715 17.6875 89.4316 17.5352 89.1504 17.2305C88.8691 16.9258 88.7285 16.5332 88.7285 16.0645C88.7285 15.5898 88.8691 15.2031 89.1504 14.8984C89.4316 14.5938 89.7715 14.4414 90.1699 14.4414ZM98.332 16.1172L96.832 18.2207H98.3906L99.8906 16.1172L98.3906 14.0195H96.832L98.332 16.1172ZM95.7539 16.1172L94.2539 18.2207H95.8125L97.3125 16.1172L95.8125 14.0195H94.2539L95.7539 16.1172Z" fill="white"/>
</svg>
