<svg width="68" height="42" viewBox="0 0 68 42" fill="none" xmlns="http://www.w3.org/2000/svg">
<rect width="68" height="29" rx="6" fill="#248232"/>
<path d="M24 42L31.7942 24.75H16.2058L24 42Z" fill="#248232"/>
<path d="M12.5391 14.0195H10.9805L9.48047 16.1172L10.9805 18.2207H12.5391L11.0391 16.1172L12.5391 14.0195ZM15.1172 14.0195H13.5586L12.0586 16.1172L13.5586 18.2207H15.1172L13.6172 16.1172L15.1172 14.0195ZM18.4805 10.5977H16.6758V19H18.4805V16.5977L19.5586 15.4023L22.0195 19H24.1172L20.7598 14.0781L23.877 10.5977H21.7793L18.4805 14.2598V10.5977ZM28.7988 10.4219C27.5156 10.4219 26.4316 10.8496 25.5527 11.7051C24.6738 12.5605 24.2344 13.5918 24.2344 14.7988C24.2344 16.0059 24.6738 17.043 25.5527 17.8984C26.4316 18.7539 27.5156 19.1816 28.7988 19.1816C29.2324 19.1816 29.6543 19.123 30.0645 19C30.4746 18.8828 30.8027 18.748 31.0547 18.6016C31.3066 18.4551 31.541 18.2852 31.7637 18.0918C31.9863 17.8984 32.127 17.7637 32.1914 17.6875C32.2559 17.6113 32.3027 17.5469 32.3379 17.5L31.2539 16.3574L31.1602 16.4805C31.0957 16.5684 30.9961 16.668 30.8555 16.7852C30.7148 16.9023 30.5508 17.0195 30.3691 17.1367C30.1816 17.2539 29.9531 17.3535 29.6719 17.4355C29.3906 17.5176 29.1035 17.5586 28.7988 17.5586C28.0137 17.5586 27.3574 17.2949 26.8301 16.7676C26.3027 16.2402 26.0391 15.584 26.0391 14.7988C26.0391 14.0137 26.3027 13.3574 26.8301 12.8301C27.3574 12.3027 28.0137 12.0391 28.7988 12.0391C29.0801 12.0391 29.3613 12.0859 29.6367 12.1738C29.9062 12.2617 30.1289 12.3555 30.2988 12.4609C30.4629 12.5664 30.6211 12.6836 30.7617 12.8184C30.9023 12.959 30.9961 13.0527 31.0371 13.1113C31.0781 13.1699 31.1133 13.2109 31.1367 13.2402L32.2793 12.0977L32.1445 11.9219C32.0566 11.8105 31.916 11.6699 31.7168 11.5059C31.5176 11.3418 31.2949 11.1777 31.0371 11.0137C30.7793 10.8496 30.457 10.7148 30.0586 10.5977C29.6602 10.4805 29.2383 10.4219 28.7988 10.4219ZM38.2734 14.2598L35.3965 10.5977H33.7734V19H35.5781V13.4219L38.2734 16.8379L40.9746 13.3984V19H42.7734V10.5977H41.1797L38.2734 14.2598ZM46.7344 10.5977H44.9297V19H46.7344V16.5977L47.8125 15.4023L50.2734 19H52.3711L49.0137 14.0781L52.1309 10.5977H50.0332L46.7344 14.2598V10.5977ZM56.9297 16.1172L55.4297 18.2207H56.9883L58.4883 16.1172L56.9883 14.0195H55.4297L56.9297 16.1172ZM54.3516 16.1172L52.8516 18.2207H54.4102L55.9102 16.1172L54.4102 14.0195H52.8516L54.3516 16.1172Z" fill="white"/>
</svg>
