<svg width="43" height="43" viewBox="0 0 43 43" fill="none" xmlns="http://www.w3.org/2000/svg">
<g clip-path="url(#clip0_181_144)">
<path d="M42.9884 19.6528C42.983 19.5713 42.9677 19.4933 42.9409 19.4163C42.931 19.3876 42.9239 19.3599 42.9113 19.3321C42.8683 19.2389 42.8137 19.1511 42.7384 19.0768C42.7375 19.0759 42.7375 19.0759 42.7375 19.0759L37.625 13.9625V8.95833C37.625 8.93862 37.6151 8.9216 37.6134 8.9019C37.608 8.82306 37.5928 8.74692 37.5677 8.67167C37.5578 8.643 37.5506 8.61523 37.5372 8.58746C37.4933 8.4925 37.4387 8.40202 37.3616 8.32498L29.2991 0.262479C29.2221 0.185438 29.1316 0.129896 29.0357 0.086C29.0089 0.0743542 28.982 0.0662917 28.9551 0.0573333C28.8781 0.0304583 28.7992 0.0152292 28.7186 0.00985417C28.7007 0.00895833 28.6846 0 28.6667 0H6.27083C5.77633 0 5.375 0.401333 5.375 0.895833V13.9625L0.262479 19.075C0.262479 19.075 0.261583 19.0759 0.260688 19.0768C0.185438 19.152 0.131687 19.2398 0.0886875 19.3321C0.0761458 19.3599 0.0689792 19.3876 0.059125 19.4163C0.03225 19.4933 0.016125 19.5713 0.0116458 19.6528C0.00985417 19.6725 0 19.6886 0 19.7083V36.7292C0 37.2237 0.401333 37.625 0.895833 37.625H5.375V42.1042C5.375 42.5987 5.77633 43 6.27083 43H36.7292C37.2237 43 37.625 42.5987 37.625 42.1042V37.625H42.1042C42.5987 37.625 43 37.2237 43 36.7292V19.7083C43 19.6886 42.9901 19.6725 42.9884 19.6528ZM39.9416 18.8125H37.625V16.4959L39.9416 18.8125ZM34.5666 8.0625H29.5625V3.05837L34.5666 8.0625ZM7.16667 1.79167H27.7708V8.95833C27.7708 9.45283 28.1722 9.85417 28.6667 9.85417H35.8333V14.3333V18.8125H7.16667V14.3333V1.79167ZM5.375 16.4959V18.8125H3.05837L5.375 16.4959ZM35.8333 41.2083H7.16667V37.625H35.8333V41.2083ZM41.2083 35.8333H1.79167V20.6042H6.27083H36.7292H41.2083V35.8333Z" fill="#484F59"/>
<path d="M16.353 23.9366C16.0637 23.6885 15.7367 23.5129 15.3703 23.4117C15.0048 23.3105 14.6491 23.2594 14.3043 23.2594H11.3193V34.0416H13.1164V29.7166H14.3956C14.771 29.7166 15.1365 29.6503 15.4921 29.5186C15.8478 29.3869 16.1622 29.1835 16.4363 28.9094C16.7105 28.6353 16.9308 28.2931 17.0993 27.881C17.2668 27.4698 17.351 26.9905 17.351 26.4423C17.351 25.8331 17.2569 25.3252 17.0688 24.9194C16.8807 24.5136 16.6424 24.1857 16.353 23.9366ZM15.2037 27.7753C14.9295 28.0745 14.5793 28.2241 14.1529 28.2241H13.1173V24.7975H14.1529C14.5793 24.7975 14.9295 24.9292 15.2037 25.1935C15.4778 25.4578 15.6149 25.8788 15.6149 26.4575C15.6149 27.0362 15.4778 27.4752 15.2037 27.7753Z" fill="#2BA84A"/>
<path d="M27.5225 34.0416H29.3652V29.412H32.1217V27.8434H29.3509V24.9041H32.3501V23.2594H27.5225V34.0416Z" fill="#2BA84A"/>
<path d="M21.5682 23.2594H18.8574V34.0416H21.553C22.9442 34.0416 23.9977 33.5722 24.7135 32.6334C25.4293 31.6937 25.7867 30.3714 25.7867 28.6658C25.7867 26.9601 25.4293 25.6325 24.7135 24.6829C23.9977 23.7342 22.9496 23.2594 21.5682 23.2594ZM23.7845 30.3177C23.668 30.7907 23.5023 31.1839 23.29 31.4984C23.0768 31.8128 22.8233 32.0493 22.5285 32.2061C22.2338 32.3638 21.914 32.4426 21.5691 32.4426H20.701V24.8585H21.5691C21.914 24.8585 22.2338 24.9373 22.5285 25.095C22.8233 25.2517 23.0768 25.4882 23.29 25.8027C23.5032 26.1171 23.668 26.5131 23.7845 26.9905C23.901 27.468 23.9601 28.0261 23.9601 28.6658C23.9601 29.2955 23.901 29.8456 23.7845 30.3177Z" fill="#2BA84A"/>
</g>
<defs>
<clipPath id="clip0_181_144">
<rect width="43" height="43" fill="white"/>
</clipPath>
</defs>
</svg>
