<svg width="43" height="43" viewBox="0 0 43 43" fill="none" xmlns="http://www.w3.org/2000/svg">
<g clip-path="url(#clip0_186_975)">
<path d="M38.3809 0.0755882C38.2633 0.109184 38.0197 0.218361 37.835 0.319145C37.457 0.512306 32.5104 4.45118 32.1324 4.8543C31.998 4.99707 31.8469 5.29942 31.7881 5.51778C31.6957 5.89571 31.6453 5.94609 31.1498 6.22324L30.6123 6.52559L30.1588 7.65098C29.9068 8.27246 29.6969 8.78477 29.6801 8.80156C29.6717 8.81836 29.1762 8.58321 28.5799 8.28086C27.9752 7.98692 27.2613 7.65098 26.9926 7.5334C25.2205 6.81953 23.2385 7.14707 21.8947 8.39004C21.6176 8.65039 19.7111 10.8844 17.6535 13.3535C15.6043 15.8227 13.891 17.8719 13.8658 17.9139C13.8322 17.9475 10.9012 18.7537 7.34023 19.6943C3.7877 20.6434 0.755859 21.458 0.613086 21.5084C0.461914 21.5588 0.260352 21.6932 0.167969 21.8107C0 22.0207 0 22.1383 0 28.6723C0 34.8367 0.0167969 35.3322 0.151172 35.5002C0.226758 35.601 3.17461 37.3311 6.69355 39.3383C12.0518 42.4037 13.152 43 13.4207 43C13.6055 43 19.7111 41.1355 28.1432 38.5068C41.2531 34.4084 42.5549 33.9885 42.7732 33.7617L43 33.5098V26.8834C43 20.3494 43 20.257 42.832 20.0471C42.7313 19.9295 41.7486 19.308 40.64 18.6781L38.6328 17.5275L38.8428 17.242C39.2543 16.7045 39.4139 16.2174 39.4223 15.4951C39.4223 14.9408 39.3887 14.7393 39.2039 14.3445C38.7756 13.4207 38.5656 13.2863 34.8451 11.4219C32.9807 10.4897 31.4354 9.7086 31.4186 9.6918C31.4018 9.675 31.5445 9.24668 31.7461 8.74277C32.0484 7.96172 32.1408 7.81055 32.3508 7.71817C32.5355 7.64258 32.6447 7.64258 32.8043 7.71817C33.283 7.93653 33.8205 7.82735 37.457 6.79434C39.4223 6.23164 41.2111 5.68575 41.4295 5.56816C41.9502 5.30782 42.4289 4.82071 42.7229 4.26641C42.9328 3.86329 42.958 3.7457 42.958 2.93946C42.958 2.13321 42.9328 2.01563 42.7229 1.6125C42.4289 1.04981 41.9502 0.571098 41.3875 0.277153C40.9676 0.0587921 40.8668 0.041996 39.7666 0.0251999C39.1199 0.0167999 38.4984 0.033596 38.3809 0.0755882ZM40.6232 2.01563C41.3035 2.42715 41.3119 3.51055 40.64 3.86329C40.4637 3.96407 34.1313 5.79493 33.9801 5.79493C33.8709 5.79493 38.616 2.01563 38.8344 1.93164C38.9268 1.88965 39.3131 1.85606 39.6826 1.85606C40.2033 1.84766 40.4133 1.88125 40.6232 2.01563ZM26.0352 9.19629C26.1947 9.25508 26.917 9.59941 27.6393 9.96055C28.8486 10.5736 28.9494 10.6408 28.8906 10.8088C28.8402 10.9264 27.3957 11.8418 24.5066 13.5719C22.1383 14.9912 20.1143 16.2258 20.0135 16.3098C19.3332 16.9313 19.7867 18.0482 20.677 17.9475C20.8869 17.9223 22.365 17.074 25.5061 15.2012C27.992 13.7063 30.0916 12.4297 30.184 12.3541C30.268 12.2785 30.4107 12.0602 30.4947 11.8586C30.5787 11.6654 30.6711 11.5059 30.6963 11.5059C30.7215 11.5059 32.208 12.2449 34.0053 13.1436C35.9957 14.1346 37.3311 14.8484 37.4066 14.966C37.6334 15.2852 37.583 15.8227 37.2975 16.1418C37.0623 16.4105 36.9363 16.4441 24.7334 19.4928C14.3361 22.0963 12.4381 22.5498 12.5809 22.3902C12.6648 22.2979 15.0164 19.4844 17.7879 16.1502C20.5678 12.8076 22.9865 9.95215 23.1545 9.79258C23.9439 9.07032 25.0273 8.84356 26.0352 9.19629ZM38.1625 19.4424L39.7414 20.3494L26.6566 24.4395L13.5635 28.5379L13.0932 28.2691C9.99414 26.5223 3.37617 22.7094 3.42656 22.701C3.67852 22.617 11.6318 20.509 11.6486 20.5258C11.657 20.5342 11.0775 21.2397 10.3637 22.0879C8.97793 23.7508 8.80156 24.0699 8.98633 24.5234C9.1375 24.8846 9.45664 25.1113 9.81777 25.1113C9.98574 25.1113 10.7836 24.9434 11.5898 24.7334L13.0596 24.3639L14.3193 25.1113C15.873 26.0352 15.957 26.0688 16.3182 26.0016C16.6793 25.9344 16.9564 25.6404 17.0236 25.2541C17.0992 24.7586 16.9313 24.4814 16.2762 24.0699L15.6883 23.7088L17.2504 23.3141C18.107 23.1041 18.8629 22.9277 18.9301 22.9277C18.9973 22.9277 19.5264 23.2133 20.0975 23.5576C20.9877 24.0951 21.2061 24.1875 21.5168 24.1875C22.1467 24.1875 22.5078 23.7088 22.3902 23.0621C22.3398 22.7934 22.0039 22.4154 21.7352 22.3146C21.6764 22.2979 21.6428 22.2643 21.668 22.2391C21.6932 22.2139 22.4238 22.0207 23.2973 21.8023L24.8762 21.4076L25.7328 21.9199C26.7406 22.5078 27.0514 22.5582 27.4629 22.1887C27.8156 21.8779 27.8996 21.3404 27.6477 20.9961L27.4713 20.7609L29.1258 20.3494L30.7803 19.9379L31.4102 20.3074C31.9477 20.6182 32.0904 20.6602 32.376 20.6266C32.8631 20.5678 33.1906 20.1814 33.157 19.7111L33.1318 19.3584L34.8115 18.9301C35.7354 18.6949 36.508 18.5102 36.5332 18.5186C36.5584 18.527 37.2891 18.9469 38.1625 19.4424ZM41.1523 27.1857V32.46L27.8576 36.6088C20.551 38.8932 14.5209 40.7744 14.4705 40.7996C14.3865 40.8248 14.3613 39.7414 14.3613 35.5506V30.2596L27.6561 26.1023C34.9627 23.8096 40.9928 21.9283 41.0516 21.9283C41.1272 21.9199 41.1523 23.0285 41.1523 27.1857ZM12.5137 35.2986V40.4805L12.1105 40.2537C11.8838 40.1193 9.49023 38.7504 6.77754 37.2051L1.84766 34.3916V29.2098V24.0279L7.18066 27.0682L12.5053 30.1084L12.5137 35.2986Z" fill="white"/>
</g>
<defs>
<clipPath id="clip0_186_975">
<rect width="43" height="43" fill="white"/>
</clipPath>
</defs>
</svg>
