<svg width="70" height="70" viewBox="0 0 70 70" fill="none" xmlns="http://www.w3.org/2000/svg">
<path d="M15.1715 30.5081C14.6173 30.5081 14.0631 30.2747 13.6256 29.8664C13.0131 29.2539 12.809 28.2913 13.159 27.4747L18.584 14.5247C18.7006 14.2622 18.759 14.0872 18.8465 13.9414C23.1631 3.99552 28.6756 1.57468 38.4172 5.30802C38.9713 5.51219 39.4088 5.94969 39.6422 6.50385C39.8755 7.05802 39.8755 7.67052 39.6422 8.22469L31.0963 28.058C30.7463 28.8455 29.9588 29.3706 29.084 29.3706H20.7715C19.109 29.3706 17.534 29.6914 16.0173 30.3331C15.7548 30.4497 15.4631 30.5081 15.1715 30.5081ZM30.9505 8.02052C27.334 8.02052 25.1173 10.383 22.8131 15.7497C22.784 15.8372 22.7256 15.9247 22.6965 16.0122L18.8756 25.083C19.5173 25.0247 20.1298 24.9955 20.7715 24.9955H27.6256L34.6547 8.66219C33.2838 8.22469 32.0588 8.02052 30.9505 8.02052Z" fill="#05668D"/>
<path d="M53.3406 29.9501C53.1364 29.9501 52.9031 29.921 52.6989 29.8626C51.6197 29.5418 50.4239 29.3668 49.1989 29.3668H29.0738C28.3446 29.3668 27.6446 28.9875 27.2363 28.375C26.8571 27.7625 26.7696 26.975 27.0613 26.3042L35.5197 6.67501C35.9572 5.625 37.2406 4.92501 38.3197 5.27501C38.6697 5.39167 38.9906 5.53751 39.3406 5.68334L46.2239 8.57084C50.2489 10.2333 52.9322 11.9833 54.6822 14.0833C55.0322 14.4917 55.3239 14.9292 55.5864 15.3667C55.9072 15.8625 56.1989 16.475 56.4031 17.0875C56.4906 17.2917 56.6364 17.6708 56.7239 18.0792C57.5406 20.8208 57.1322 24.2333 55.3822 28.6083C55.0322 29.4251 54.2156 29.9501 53.3406 29.9501ZM32.3989 24.9917H49.2281C50.1614 24.9917 51.0656 25.0792 51.9697 25.225C52.7864 22.6875 52.9614 20.7333 52.4947 19.1583C52.4364 18.8958 52.3781 18.7792 52.3489 18.6625C52.1739 18.1958 52.0572 17.9333 51.9114 17.7C51.7072 17.3792 51.5614 17.1167 51.3281 16.8542C50.0739 15.3375 47.8572 13.9375 44.5614 12.5958L38.7864 10.175L32.3989 24.9917Z" fill="#05668D"/>
<path d="M46.375 66.355H23.625C22.8083 66.355 22.05 66.2967 21.2917 66.2092C11.0542 65.5092 5.22083 59.6758 4.52083 49.3217C4.43333 48.68 4.375 47.8925 4.375 47.105V41.4175C4.375 34.855 8.28333 28.9342 14.3208 26.3092C16.3625 25.4342 18.55 24.9967 20.7958 24.9967H49.2625C50.925 24.9967 52.5292 25.23 54.0167 25.6967C60.8708 27.7675 65.6833 34.2425 65.6833 41.4175V47.105C65.6833 47.7467 65.6542 48.3592 65.625 48.9425C64.9833 60.3467 58.3333 66.355 46.375 66.355ZM20.7667 29.3717C19.1042 29.3717 17.5292 29.6925 16.0125 30.3342C11.5792 32.2592 8.72083 36.605 8.72083 41.4175V47.105C8.72083 47.7175 8.77917 48.33 8.8375 48.9133C9.39167 57.2258 13.475 61.3092 21.6708 61.8633C22.4 61.9508 22.9833 62.0092 23.5958 62.0092H46.3458C55.9708 62.0092 60.6958 57.78 61.1625 48.7383C61.1917 48.2133 61.2208 47.6883 61.2208 47.105V41.4175C61.2208 36.1383 57.6917 31.4133 52.675 29.8675C51.5958 29.5467 50.4 29.3717 49.175 29.3717H20.7667Z" fill="#05668D"/>
<path d="M6.52832 43.6095C5.33249 43.6095 4.34082 42.6178 4.34082 41.422V32.8761C4.34082 23.6885 10.845 15.7552 19.8283 14.0052C20.6158 13.8593 21.4325 14.151 21.9575 14.7635C22.4533 15.376 22.5992 16.251 22.2783 16.9802L17.1742 29.172C16.9408 29.697 16.5325 30.1053 16.0367 30.3386C11.6033 32.2636 8.74499 36.6095 8.74499 41.422C8.71582 42.6178 7.75332 43.6095 6.52832 43.6095ZM16.3283 19.8968C12.595 21.9968 9.88249 25.6718 9.03665 29.9595C10.32 28.6468 11.8075 27.5385 13.4992 26.7218L16.3283 19.8968Z" fill="#05668D"/>
<path d="M63.4703 43.6036C62.2744 43.6036 61.2828 42.6119 61.2828 41.4161C61.2828 36.1369 57.7536 31.4119 52.7369 29.8661C52.1536 29.6911 51.6578 29.2827 51.3953 28.7285C51.1328 28.1744 51.1036 27.5327 51.3369 26.9785C52.7078 23.566 53.0578 21.0869 52.5036 19.1619C52.4453 18.8994 52.3869 18.7827 52.3578 18.666C51.9786 17.8202 52.1828 16.8285 52.8536 16.1869C53.5244 15.5452 54.5453 15.3994 55.3619 15.8369C61.7203 19.1619 65.6578 25.6952 65.6578 32.8702V41.4161C65.6578 42.6119 64.6661 43.6036 63.4703 43.6036ZM56.1494 26.5119C57.9869 27.3577 59.6203 28.5535 60.9911 29.9827C60.4369 27.1244 59.0661 24.5285 57.0536 22.4869C56.9078 23.7119 56.6161 25.0535 56.1494 26.5119Z" fill="#05668D"/>
</svg>
