<svg width="42" height="41" viewBox="0 0 42 41" fill="none" xmlns="http://www.w3.org/2000/svg">
<g clip-path="url(#clip0_186_969)">
<path d="M10.5247 0.192188C10.3278 0.352345 10.295 0.448437 10.295 0.77676C10.295 1.10508 10.3524 1.24121 10.7297 1.78574C10.9676 2.12207 11.1809 2.45039 11.2055 2.50645C11.2301 2.57852 11.1235 2.65059 10.902 2.72266C9.97504 3.02695 8.90043 3.97187 8.39184 4.94082C7.82582 6.01387 7.83403 5.9418 7.83403 10.25C7.83403 13.6693 7.85043 14.1979 7.97348 14.6703C8.37543 16.1918 9.09731 17.449 10.1719 18.5061C10.7789 19.1066 12.0258 20.0195 12.2309 20.0195C12.2719 20.0195 12.3047 20.4119 12.3047 20.9004C12.3047 21.3809 12.2965 21.7812 12.2801 21.7812C12.2637 21.7812 10.4836 22.0135 8.31801 22.2938C5.81606 22.6221 4.21645 22.8703 3.91293 22.9744C3.00239 23.2867 2.44457 23.6391 1.68168 24.3838C1.07465 24.9684 0.869574 25.2326 0.590668 25.7852C-0.0163631 27.0023 4.3146e-05 26.7221 4.3146e-05 34.0412V40.5756L0.213324 40.7918L0.434809 41H20.3028H40.1707L40.6711 40.7518C41.2454 40.4795 41.5325 40.1832 41.8114 39.5826L42.0082 39.1742L41.9836 35.2584C41.959 30.9021 41.9918 31.1744 41.3684 30.5018C40.8844 29.9732 40.3676 29.765 39.4817 29.725L38.7188 29.693V29.0764C38.7188 28.2035 38.5465 27.7711 37.9805 27.2105C37.2832 26.5299 37.1438 26.5059 34.2563 26.5059L31.8692 26.4979L31.5657 25.8813C30.852 24.4078 29.4329 23.2627 27.8497 22.8703C27.4723 22.7822 20.1305 21.7812 19.8352 21.7812C19.7942 21.7812 19.7696 21.4129 19.7696 20.9564V20.1316L20.5489 19.6352C22.3043 18.5141 23.5348 16.8324 24.0762 14.8305C24.3141 13.9576 24.3797 12.6443 24.3469 9.03281C24.3059 4.97285 24.2895 4.86074 23.5676 3.44336C23.2395 2.79473 23.059 2.57051 22.3536 1.88184C21.6481 1.19316 21.4184 1.01699 20.754 0.696682C19.343 0.00800705 19.2528 0 14.7164 0H10.7543L10.5247 0.192188ZM18.8836 1.78574C20.5489 2.25019 21.8532 3.45938 22.3618 5.00488C22.534 5.52539 22.5832 5.86973 22.6161 6.78262L22.6653 7.92773L22.2223 7.77559C21.9762 7.69551 21.5907 7.53535 21.361 7.42324C20.8688 7.18301 19.745 6.36621 19.4004 6.00586C19.1051 5.70156 18.7852 5.52539 18.5145 5.52539C18.4079 5.52539 18.1043 5.65351 17.8336 5.81367C16.3817 6.67852 14.5934 7.36719 13.002 7.67949C12.1079 7.84766 10.6559 8.00781 9.94223 8.00781H9.49106L9.53207 7.22305C9.58129 6.22207 9.8602 5.59746 10.5411 4.97285C11.1071 4.44434 11.6895 4.18809 12.518 4.08398C13.084 4.01992 13.1907 3.97187 13.3957 3.76367C13.7567 3.37129 13.7075 3.05098 13.1579 2.25019L12.6985 1.58555L15.5614 1.62559C17.8747 1.64961 18.5063 1.68164 18.8836 1.78574ZM20.1797 8.72852C20.8196 9.09688 21.6317 9.40918 22.2469 9.53731L22.6571 9.62539L22.6161 11.7234C22.5668 14.1258 22.493 14.5102 21.8696 15.7354C21.0329 17.3609 19.425 18.6102 17.6039 19.0586C16.8247 19.2508 15.4793 19.2668 14.6672 19.0986C12.7149 18.6982 11.025 17.3609 10.1391 15.5271C9.61411 14.4541 9.57309 14.1979 9.53207 11.8436L9.49926 9.71348L10.5985 9.66543C13.1332 9.53731 15.2907 9.00879 17.3497 8.00781L18.4161 7.4873L19.0149 7.94375C19.343 8.2 19.868 8.55235 20.1797 8.72852ZM16.0782 20.8604C16.7344 20.8604 17.4399 20.8283 17.6614 20.7963L18.0469 20.7322V21.4369V22.1416L17.0543 22.9664C16.1684 23.7111 16.0536 23.7832 15.9305 23.6871C15.8567 23.623 15.3973 23.2387 14.9133 22.8303L14.0274 22.0936V21.4049V20.7242L14.4622 20.7963C14.6918 20.8283 15.4219 20.8604 16.0782 20.8604ZM13.7731 24.1275L14.6508 24.8723L13.2645 25.8572C12.5016 26.3938 11.87 26.8262 11.8536 26.8102C11.7633 26.7061 10.4016 23.7752 10.4262 23.7432C10.459 23.7191 11.2055 23.607 12.8215 23.3908C12.8625 23.3828 13.2891 23.7191 13.7731 24.1275ZM20.6719 23.591C21.2379 23.6631 21.7055 23.7271 21.7137 23.7352C21.7383 23.7592 20.3438 26.682 20.27 26.7621C20.2125 26.8262 17.5875 25.0004 17.5547 24.8723C17.5465 24.8322 17.9157 24.4799 18.3832 24.0955C19.0723 23.5189 19.2774 23.3908 19.4415 23.4229C19.5563 23.4389 20.1059 23.5189 20.6719 23.591ZM9.67973 26.2977C10.4508 27.8992 10.8692 28.668 11.0332 28.8041C11.3942 29.1084 11.7551 29.0283 12.5918 28.4357C12.9692 28.1635 13.2973 27.9473 13.3301 27.9473C13.3547 27.9473 13.5024 28.2035 13.65 28.5238L13.9125 29.0924L13.1004 33.0563C12.6411 35.3225 12.3129 37.1002 12.3375 37.2043C12.3704 37.3164 12.7805 37.8289 13.2481 38.3574C13.7239 38.8779 14.1094 39.3344 14.1094 39.3584C14.1094 39.3824 11.3039 39.3984 7.87504 39.3984H1.64067V34.0092C1.64067 31.0543 1.68168 28.3236 1.7227 27.9553C1.90317 26.3857 3.07621 24.9844 4.56098 24.56C5.00395 24.4238 8.30161 23.9434 8.49028 23.9834C8.53129 23.9914 9.0727 25.0324 9.67973 26.2977ZM25.5528 24.2236C26.4141 24.3357 27.3 24.4799 27.5215 24.5439C28.1122 24.7121 28.8586 25.1605 29.3098 25.633C29.7118 26.0574 30.1711 26.8262 30.0235 26.8262C29.9743 26.8262 29.7528 27.0023 29.5395 27.2105C29.0227 27.715 28.793 28.2996 28.793 29.1004V29.693L28.0711 29.725C26.9309 29.773 26.2336 30.1814 25.7414 31.0943C25.5528 31.4307 25.5528 31.4307 25.5528 35.4105V39.3984H21.7465H17.9403L18.0961 39.2223C19.7778 37.3564 19.7696 37.3645 19.7696 37.0041C19.7696 36.8439 19.4168 35.0021 18.9903 32.9121L18.211 29.1084L18.4735 28.5318C18.6129 28.2115 18.7606 27.9473 18.7852 27.9473C18.818 27.9473 18.9329 28.0113 19.0395 28.0994C19.6793 28.5799 20.3848 28.9883 20.5735 28.9883C21.1149 28.9883 21.2215 28.8361 22.4274 26.3217C23.5348 24.0154 23.5676 23.9514 23.7809 23.9914C23.8957 24.0074 24.6997 24.1115 25.5528 24.2236ZM16.6934 26.4258C17.0133 26.65 17.2758 26.8582 17.2922 26.8982C17.3086 26.9383 17.1856 27.2266 17.0215 27.5389L16.7344 28.1074H16.0536H15.3727L15.061 27.4908C14.8231 27.0184 14.7739 26.8662 14.8641 26.8182C14.9215 26.7861 15.1922 26.5939 15.4629 26.3938C15.7336 26.1936 15.9961 26.0254 16.0372 26.0254C16.0864 26.0254 16.3817 26.2096 16.6934 26.4258ZM36.7582 28.4197C36.9715 28.6359 36.9961 28.708 36.9961 29.1805V29.709H33.7477H30.4993L30.5321 29.1404C30.5567 28.6359 30.5895 28.5479 30.7864 28.3797L31.0161 28.1875H33.7641H36.5204L36.7582 28.4197ZM16.6032 29.9252C16.718 30.3336 17.9731 36.6197 17.9485 36.7158C17.9321 36.7719 17.5055 37.2924 16.9969 37.8609L16.0618 38.91L15.0774 37.8129C14.3473 36.9961 14.1094 36.6838 14.1422 36.5557C14.1586 36.4676 14.4868 34.9061 14.8559 33.0883L15.5286 29.7891H16.0454C16.4637 29.7891 16.5704 29.8131 16.6032 29.9252ZM39.8754 31.4707C39.9575 31.5188 40.0313 31.5908 40.0313 31.6389C40.0313 31.6869 39.8426 31.9191 39.6129 32.1514C38.85 32.9361 39.0387 32.9121 33.7641 32.9121C28.5059 32.9121 28.7274 32.9361 27.9563 32.1834C27.6938 31.9271 27.4805 31.6869 27.4805 31.6309C27.4805 31.5828 27.5625 31.5107 27.6692 31.4707C27.9317 31.3666 39.6704 31.3666 39.8754 31.4707ZM28.5879 34.4736C28.8586 34.5377 29.195 34.5938 29.3426 34.5938H29.6133V35.0742C29.6133 35.859 29.8758 36.1953 30.4747 36.1953C31.0735 36.1953 31.336 35.859 31.336 35.0742V34.5938H33.7477H36.1594L36.1922 35.1623C36.2168 35.6828 36.2414 35.7549 36.4875 35.9631C36.8567 36.2914 37.3243 36.2834 37.6606 35.9631C37.8821 35.7469 37.8985 35.6828 37.8985 35.1623V34.5938H38.1692C38.5711 34.5938 39.3258 34.3855 39.8098 34.1373C40.0395 34.0172 40.2692 33.9051 40.302 33.8891C40.3348 33.873 40.3594 34.9701 40.343 36.3234C40.3184 38.982 40.3102 39.0301 39.8754 39.2543C39.7196 39.3344 38.4727 39.3584 33.6985 39.3584H27.7102L27.4723 39.0941L27.2344 38.8379V36.3635V33.8891L27.6692 34.1213C27.9071 34.2414 28.3172 34.4016 28.5879 34.4736Z" fill="white"/>
<path d="M12.2226 11.4271C12.0422 11.5873 11.9519 11.7475 11.9191 11.9877C11.8781 12.3 11.9027 12.3561 12.1652 12.6123C12.4441 12.8846 12.4687 12.8926 13.1168 12.8926C13.4777 12.8926 13.8715 12.8525 13.9863 12.7965C14.3801 12.6203 14.5441 12.0918 14.3391 11.6514C14.1914 11.323 13.8715 11.2109 13.1332 11.2109C12.5262 11.2109 12.4523 11.227 12.2226 11.4271Z" fill="white"/>
<path d="M18.1293 11.3151C18.0145 11.3711 17.8586 11.5473 17.7766 11.7154C17.6454 11.9637 17.6372 12.0518 17.7192 12.292C17.7684 12.4442 17.9079 12.6444 18.0309 12.7404C18.2278 12.8846 18.3426 12.9006 19.0153 12.8766C19.7372 12.8526 19.7946 12.8365 19.9833 12.6283C20.1227 12.4682 20.1801 12.308 20.1801 12.0838C20.1801 11.6754 20.0735 11.4832 19.77 11.3311C19.4747 11.1869 18.4247 11.1709 18.1293 11.3151Z" fill="white"/>
<path d="M14.109 14.4701C13.8547 14.5662 13.6168 14.8465 13.5676 15.1107C13.4117 15.9355 14.593 16.8084 15.9547 16.8805C16.857 16.9205 17.4066 16.7203 18.0629 16.1037C18.5059 15.6793 18.5387 15.6232 18.5387 15.2789C18.5387 14.4221 17.5625 14.1418 16.9391 14.8145C16.5945 15.1828 16.0941 15.3109 15.6348 15.1348C15.5199 15.0947 15.282 14.9346 15.1016 14.7744C14.7816 14.4941 14.3715 14.366 14.109 14.4701Z" fill="white"/>
</g>
<defs>
<clipPath id="clip0_186_969">
<rect width="42" height="41" fill="white"/>
</clipPath>
</defs>
</svg>
