<svg width="70" height="70" viewBox="0 0 70 70" fill="none" xmlns="http://www.w3.org/2000/svg">
<path d="M56.642 34.2709H46.667C45.4712 34.2709 44.4795 33.2792 44.4795 32.0834V11.6959C44.4795 9.53754 45.3253 7.52504 46.842 6.00837C48.3587 4.49171 50.3712 3.64587 52.5295 3.64587H52.5587C56.2045 3.67504 59.6462 5.10421 62.2712 7.70004C64.8962 10.3542 66.3253 13.8542 66.3253 17.5V24.5584C66.3545 30.3625 62.4462 34.2709 56.642 34.2709ZM48.8545 29.8959H56.642C60.0253 29.8959 61.9795 27.9417 61.9795 24.5584V17.5C61.9795 14.9917 60.9878 12.6 59.2087 10.7917C57.4295 9.04171 55.0378 8.05004 52.5587 8.02087C52.5587 8.02087 52.5587 8.02087 52.5295 8.02087C51.567 8.02087 50.6337 8.40004 49.9337 9.10004C49.2337 9.80004 48.8545 10.7042 48.8545 11.6959V29.8959Z" fill="#05668D"/>
<path d="M26.2497 68.0459C24.8788 68.0459 23.5955 67.5209 22.633 66.5292L17.7913 61.6584C17.5288 61.3959 17.1205 61.3667 16.8288 61.6L11.8122 65.3334C10.2663 66.5 8.22467 66.7042 6.47467 65.8292C4.72467 64.9542 3.64551 63.2042 3.64551 61.25V17.5C3.64551 8.69171 8.69134 3.64587 17.4997 3.64587H52.4997C53.6955 3.64587 54.6872 4.63754 54.6872 5.83337C54.6872 7.02921 53.6955 8.02087 52.4997 8.02087C50.4872 8.02087 48.8538 9.65421 48.8538 11.6667V61.25C48.8538 63.2042 47.7747 64.9542 46.0247 65.8292C44.2747 66.7042 42.233 66.5292 40.6872 65.3625L35.6997 61.6292C35.408 61.3959 34.9997 61.4542 34.7663 61.6875L29.8663 66.5875C28.9038 67.5209 27.6205 68.0459 26.2497 68.0459ZM17.2372 57.0792C18.5788 57.0792 19.8913 57.575 20.883 58.5959L25.7247 63.4667C25.8997 63.6417 26.133 63.6709 26.2497 63.6709C26.3663 63.6709 26.5997 63.6417 26.7747 63.4667L31.6747 58.5667C33.483 56.7584 36.3413 56.5834 38.3538 58.1292L43.3122 61.8334C43.633 62.0667 43.9247 61.9792 44.0705 61.8917C44.2163 61.8042 44.4788 61.6292 44.4788 61.25V11.6667C44.4788 10.3542 44.7997 9.10004 45.3538 8.02087H17.4997C11.0247 8.02087 8.02051 11.025 8.02051 17.5V61.25C8.02051 61.6584 8.28301 61.8334 8.42884 61.9209C8.60384 62.0084 8.89551 62.0667 9.18717 61.8334L14.1747 58.1C15.0788 57.4292 16.158 57.0792 17.2372 57.0792Z" fill="#05668D"/>
<path d="M35 40.1383H26.25C25.0542 40.1383 24.0625 39.1466 24.0625 37.9508C24.0625 36.755 25.0542 35.7633 26.25 35.7633H35C36.1958 35.7633 37.1875 36.755 37.1875 37.9508C37.1875 39.1466 36.1958 40.1383 35 40.1383Z" fill="#05668D"/>
<path d="M35 28.4717H26.25C25.0542 28.4717 24.0625 27.48 24.0625 26.2842C24.0625 25.0883 25.0542 24.0967 26.25 24.0967H35C36.1958 24.0967 37.1875 25.0883 37.1875 26.2842C37.1875 27.48 36.1958 28.4717 35 28.4717Z" fill="#05668D"/>
<path d="M17.4089 29.2008C15.8047 29.2008 14.4922 27.8884 14.4922 26.2842C14.4922 24.6801 15.8047 23.3676 17.4089 23.3676C19.013 23.3676 20.3255 24.6801 20.3255 26.2842C20.3255 27.8884 19.013 29.2008 17.4089 29.2008Z" fill="#05668D"/>
<path d="M17.4089 40.8675C15.8047 40.8675 14.4922 39.555 14.4922 37.9508C14.4922 36.3467 15.8047 35.0342 17.4089 35.0342C19.013 35.0342 20.3255 36.3467 20.3255 37.9508C20.3255 39.555 19.013 40.8675 17.4089 40.8675Z" fill="#05668D"/>
</svg>
