<svg width="70" height="70" viewBox="0 0 70 70" fill="none" xmlns="http://www.w3.org/2000/svg">
<path d="M51.742 66.3541H18.2587C10.9962 66.3541 5.10449 60.4625 5.10449 53.2V33.5708C5.10449 26.3083 10.9962 20.4166 18.2587 20.4166H51.742C59.0045 20.4166 64.8962 26.3083 64.8962 33.5708V37.7708C64.8962 38.9666 63.9045 39.9583 62.7087 39.9583H56.817C55.7962 39.9583 54.8628 40.3375 54.192 41.0375L54.1628 41.0666C53.3462 41.8541 52.967 42.9333 53.0545 44.0416C53.2295 45.9666 55.067 47.5125 57.167 47.5125H62.7087C63.9045 47.5125 64.8962 48.5041 64.8962 49.7V53.1708C64.8962 60.4625 59.0045 66.3541 51.742 66.3541ZM18.2587 24.7916C13.417 24.7916 9.47949 28.7292 9.47949 33.5708V53.2C9.47949 58.0416 13.417 61.9791 18.2587 61.9791H51.742C56.5837 61.9791 60.5212 58.0416 60.5212 53.2V51.9166H57.167C52.7628 51.9166 49.0295 48.65 48.6795 44.45C48.4462 42.0583 49.3212 39.6958 51.0712 37.975C52.5878 36.4291 54.6295 35.5833 56.817 35.5833H60.5212V33.5708C60.5212 28.7292 56.5837 24.7916 51.742 24.7916H18.2587Z" fill="#05668D"/>
<path d="M7.29199 38.3834C6.09616 38.3834 5.10449 37.3917 5.10449 36.1959V22.8669C5.10449 18.521 7.84616 14.5834 11.9003 13.0376L35.0587 4.28756C37.4503 3.3834 40.1045 3.70435 42.1753 5.16268C44.2753 6.62101 45.5003 8.98351 45.5003 11.521V22.6043C45.5003 23.8001 44.5087 24.7918 43.3128 24.7918C42.117 24.7918 41.1253 23.8001 41.1253 22.6043V11.521C41.1253 10.4127 40.6003 9.39179 39.667 8.75012C38.7337 8.10846 37.6253 7.96262 36.5753 8.37096L13.417 17.121C11.0545 18.0251 9.45033 20.3294 9.45033 22.8669V36.1959C9.47949 37.4209 8.48783 38.3834 7.29199 38.3834Z" fill="#05668D"/>
<path d="M57.1623 51.9144C52.7581 51.9144 49.0248 48.6477 48.6748 44.4477C48.4415 42.0269 49.3165 39.6644 51.0665 37.9436C52.554 36.4269 54.5956 35.5811 56.7831 35.5811H62.8498C65.7373 35.6686 67.954 37.9436 67.954 40.7436V46.7519C67.954 49.5519 65.7373 51.8269 62.9373 51.9144H57.1623ZM62.7915 39.9561H56.8123C55.7915 39.9561 54.8582 40.3352 54.1873 41.0352C53.3415 41.8519 52.9331 42.9602 53.0498 44.0686C53.2248 45.9936 55.0623 47.5394 57.1623 47.5394H62.879C63.2581 47.5394 63.6081 47.1894 63.6081 46.7519V40.7436C63.6081 40.3061 63.2581 39.9852 62.7915 39.9561Z" fill="#05668D"/>
<path d="M40.8337 37.1875H20.417C19.2212 37.1875 18.2295 36.1958 18.2295 35C18.2295 33.8042 19.2212 32.8125 20.417 32.8125H40.8337C42.0295 32.8125 43.0212 33.8042 43.0212 35C43.0212 36.1958 42.0295 37.1875 40.8337 37.1875Z" fill="#05668D"/>
</svg>
